<?xml version="1.0" encoding="utf-8"?>
<!-- Generator: Adobe Illustrator 16.0.3, SVG Export Plug-In . SVG Version: 6.00 Build 0)  -->
<svg version="1.2" baseProfile="tiny" id="Layer_1" xmlns="http://www.w3.org/2000/svg" xmlns:xlink="http://www.w3.org/1999/xlink"
	 x="0px" y="0px" width="325px" height="200px" viewBox="0 0 325 200" xml:space="preserve">
<g>
	<path fill="#010202" d="M76.37,41.369h14.52c20.111,0,30.672,9.475,30.672,26.868S111,95.104,90.889,95.104H76.37V41.369
		 M92.132,83.068c10.25,0,16.074-5.591,16.074-14.986c0-9.629-5.746-15.375-15.919-15.375c-0.931,0-1.863,0.078-2.794,0.156V82.99
		C90.424,83.068,91.277,83.068,92.132,83.068z"/>
	<path fill="#010202" d="M134.452,47.736c5.28-4.893,11.959-7.533,19.49-7.533c7.533,0,14.211,2.64,19.491,7.533
		c5.745,5.357,8.619,12.191,8.619,20.5s-2.95,15.297-8.619,20.578c-5.28,4.893-12.037,7.532-19.491,7.532
		c-7.531,0-14.21-2.639-19.49-7.532c-5.746-5.28-8.619-12.191-8.619-20.578S128.706,53.017,134.452,47.736 M168.773,68.082
		c0-9.397-6.29-15.686-14.832-15.686s-14.832,6.289-14.832,15.686c0,9.396,6.29,15.608,14.832,15.608S168.773,77.477,168.773,68.082
		z"/>
	<polyline fill="#010202" points="185.778,38.574 220.72,70.256 220.72,42.068 233.456,42.068 233.456,97.977 198.59,65.985 
		198.59,94.793 185.778,96.036 185.778,38.574 	"/>
	<path fill="#010202" d="M17.5,99.134h14.52c20.113,0,30.673,9.473,30.673,26.867s-10.561,26.868-30.673,26.868H17.5V99.134
		 M33.263,140.834c10.25,0,16.074-5.593,16.074-14.987c0-9.629-5.746-15.376-15.919-15.376c-0.931,0-1.863,0.078-2.795,0.156v30.129
		C31.555,140.834,32.409,140.834,33.263,140.834z"/>
	<path fill="#010202" d="M187.22,99.134c11.492,0,17.395,5.047,17.395,14.055c0,5.514-2.486,9.24-7.766,11.648
		c6.135,2.252,9.397,6.91,9.397,13.277c0,9.007-6.523,14.754-18.792,14.754h-18.947V99.134H187.22 M181.474,120.721h3.65
		c3.882,0,6.133-2.25,6.133-5.59s-2.484-5.512-6.133-5.512h-3.65V120.721z M181.474,141.998h5.203c3.804,0,6.134-2.098,6.134-5.668
		c0-3.34-2.562-5.668-6.134-5.668h-5.203V141.998z"/>
	<polyline fill="#010202" points="215.173,99.05 228.296,111.125 228.296,140.445 248.562,140.445 248.562,152.869 215.173,152.869 
		215.173,99.05 	"/>
	<polyline fill="#010202" points="68.873,99.05 81.997,111.125 81.997,152.869 68.873,152.869 68.873,99.05 	"/>
	<path fill="#010202" d="M259.9,105.502c5.28-4.892,11.958-7.532,19.491-7.532c7.531,0,14.21,2.641,19.49,7.532
		c5.745,5.357,8.619,12.191,8.619,20.5c0,8.309-2.952,15.297-8.619,20.579c-5.28,4.892-12.036,7.531-19.49,7.531
		c-7.532,0-14.21-2.639-19.491-7.531c-5.747-5.282-8.619-12.192-8.619-20.579S254.153,110.783,259.9,105.502 M294.221,125.847
		c0-9.396-6.29-15.685-14.831-15.685c-8.542,0-14.832,6.289-14.832,15.685c0,9.396,6.29,15.607,14.832,15.607
		C287.932,141.455,294.221,135.244,294.221,125.847z"/>
	<path fill="#010202" d="M142.668,113.55c3.522,3.283,5.835,7.449,6.889,13.449h-6.225l1.393,3H160.5v-3h-7.834
		c-1.033-7-3.834-11.681-8.016-15.58c-3.573-3.311-7.481-5.867-11.917-7.029l1.844,3.859
		C137.634,109.404,140.121,111.189,142.668,113.55"/>
	<path fill="#010202" d="M128.152,106.105l-1.417-3.021c-0.406-0.017-0.815-0.029-1.225-0.029c-0.684,0-1.364,0.033-2.037,0.084
		l-1.444,3.076c1.146-0.166,2.307-0.25,3.481-0.25C126.401,105.965,127.282,106.013,128.152,106.105"/>
	<path fill="#010202" d="M101.461,127c1.037-6,3.277-10.008,6.888-13.326c2.29-2.121,4.604-4.055,7.259-5.22l1.844-3.984
		c-4.045,1.246-7.72,4.048-11.076,7.158c-4.188,3.848-6.995,8.374-8.023,15.373H89.5v3h16.016l1.401-3H101.461"/>
	<polyline fill="#010202" points="112.346,127 110.914,130 139.321,130 137.89,127 112.346,127 	"/>
	<path fill="#010202" d="M101.461,134h2.185l1.375-3H89.5v3h8.854c0.431,3,1.084,4.711,2.105,6.791l1.807-3.935
		C101.889,135.771,101.704,135,101.461,134"/>
	<polyline fill="#010202" points="109.083,134 141.14,134 139.813,131 110.459,131 109.083,134 	"/>
	<path fill="#010202" d="M149.557,134c-0.314,2-0.666,2.309-1.203,3.688l1.848,3.935c1.231-2.283,1.978-4.623,2.463-7.623h7.834v-3
		h-15.312l1.416,3H149.557"/>
	<path fill="#010202" d="M142.668,146.06c-4.846,4.491-10.78,6.875-17.157,6.875c-6.291,0-12.226-2.433-17.162-7.004
		c-1.221-1.124-2.271-2.383-3.185-3.735l-1.468,3.127c0.819,0.951,1.711,1.858,2.681,2.75c5.479,5.074,12.097,7.77,19.134,7.77
		c7.123,0,13.74-2.658,19.139-7.658c0.778-0.725,1.508-1.46,2.188-2.22l-1.437-3.063
		C144.589,144.044,143.685,145.115,142.668,146.06"/>
	<polyline fill="#010202" points="157.79,160.189 125.118,90.403 92.446,160.189 95.079,161.426 125.118,97.346 155.156,161.426 
		157.79,160.189 	"/>
</g>
<g>
</g>
<g>
</g>
<g>
</g>
<g>
</g>
<g>
</g>
<g>
</g>
<g>
</g>
<g>
</g>
<g>
</g>
<g>
</g>
<g>
</g>
<g>
</g>
<g>
</g>
<g>
</g>
<g>
</g>
</svg>
