<svg id="Layer_1" data-name="Layer 1" xmlns="http://www.w3.org/2000/svg" viewBox="0 0 290 122.85"><defs><style>.cls-1{fill:#fff;}</style></defs><title>main-logo-white</title><path class="cls-1" d="M76.37,41.37H90.89c20.11,0,30.67,9.48,30.67,26.87S111,95.1,90.89,95.1H76.37V41.37m15.76,41.7c10.25,0,16.07-5.59,16.07-15,0-9.63-5.75-15.38-15.92-15.38-0.93,0-1.86.08-2.79,0.16V83C90.42,83.07,91.28,83.07,92.13,83.07Z" transform="translate(-17.5 -38.57)"/><path class="cls-1" d="M134.45,47.74a29,29,0,0,1,39,0q8.62,8,8.62,20.5c0,8.31-2.95,15.3-8.62,20.58a29,29,0,0,1-39,0c-5.75-5.28-8.62-12.19-8.62-20.58s2.87-15.22,8.62-20.5m34.32,20.35c0-9.4-6.29-15.69-14.83-15.69s-14.83,6.29-14.83,15.69,6.29,15.61,14.83,15.61S168.77,77.48,168.77,68.08Z" transform="translate(-17.5 -38.57)"/><polyline class="cls-1" points="168.28 0 203.22 31.68 203.22 3.49 215.96 3.49 215.96 59.4 181.09 27.41 181.09 56.22 168.28 57.46 168.28 0"/><path class="cls-1" d="M17.5,99.13H32c20.11,0,30.67,9.47,30.67,26.87S52.13,152.87,32,152.87H17.5V99.13m15.76,41.7c10.25,0,16.07-5.59,16.07-15,0-9.63-5.75-15.38-15.92-15.38-0.93,0-1.86.08-2.8,0.16v30.13C31.56,140.83,32.41,140.83,33.26,140.83Z" transform="translate(-17.5 -38.57)"/><path class="cls-1" d="M187.22,99.13c11.49,0,17.4,5,17.4,14.06,0,5.51-2.49,9.24-7.77,11.65,6.13,2.25,9.4,6.91,9.4,13.28,0,9-6.52,14.75-18.79,14.75H168.51V99.13h18.71m-5.75,21.59h3.65c3.88,0,6.13-2.25,6.13-5.59s-2.48-5.51-6.13-5.51h-3.65v11.1Zm0,21.28h5.2c3.8,0,6.13-2.1,6.13-5.67,0-3.34-2.56-5.67-6.13-5.67h-5.2V142Z" transform="translate(-17.5 -38.57)"/><polyline class="cls-1" points="197.67 60.48 210.8 72.55 210.8 101.87 231.06 101.87 231.06 114.3 197.67 114.3 197.67 60.48"/><polyline class="cls-1" points="51.37 60.48 64.5 72.55 64.5 114.3 51.37 114.3 51.37 60.48"/><path class="cls-1" d="M259.9,105.5a29,29,0,0,1,39,0q8.62,8,8.62,20.5c0,8.31-3,15.3-8.62,20.58a29,29,0,0,1-39,0c-5.75-5.28-8.62-12.19-8.62-20.58s2.87-15.22,8.62-20.5m34.32,20.35c0-9.4-6.29-15.68-14.83-15.68s-14.83,6.29-14.83,15.68,6.29,15.61,14.83,15.61S294.22,135.24,294.22,125.85Z" transform="translate(-17.5 -38.57)"/><path class="cls-1" d="M142.67,113.55c3.52,3.28,5.84,7.45,6.89,13.45h-6.23l1.39,3H160.5v-3h-7.83a25,25,0,0,0-8-15.58,28.29,28.29,0,0,0-11.92-7l1.84,3.86a24.44,24.44,0,0,1,8.09,5.3" transform="translate(-17.5 -38.57)"/><path class="cls-1" d="M128.15,106.11l-1.42-3-1.22,0c-0.68,0-1.36,0-2,.08L122,106.21a24.26,24.26,0,0,1,3.48-.25,25.11,25.11,0,0,1,2.64.14" transform="translate(-17.5 -38.57)"/><path class="cls-1" d="M101.46,127c1-6,3.28-10,6.89-13.33a27.11,27.11,0,0,1,7.26-5.22l1.84-4c-4,1.25-7.72,4-11.08,7.16a24.26,24.26,0,0,0-8,15.37H89.5v3h16l1.4-3h-5.46" transform="translate(-17.5 -38.57)"/><polyline class="cls-1" points="94.85 88.43 93.41 91.43 121.82 91.43 120.39 88.43 94.85 88.43"/><path class="cls-1" d="M101.46,134h2.18l1.38-3H89.5v3h8.85a20.2,20.2,0,0,0,2.11,6.79l1.81-3.93a27.71,27.71,0,0,1-.81-2.86" transform="translate(-17.5 -38.57)"/><polyline class="cls-1" points="91.58 95.43 123.64 95.43 122.31 92.43 92.96 92.43 91.58 95.43"/><path class="cls-1" d="M149.56,134a12.35,12.35,0,0,1-1.2,3.69l1.85,3.93a23.13,23.13,0,0,0,2.46-7.62h7.83v-3H145.19l1.42,3h3" transform="translate(-17.5 -38.57)"/><path class="cls-1" d="M142.67,146.06a24.69,24.69,0,0,1-34.32-.13,21.12,21.12,0,0,1-3.18-3.74l-1.47,3.13a33,33,0,0,0,2.68,2.75,27.59,27.59,0,0,0,38.27.11c0.78-.73,1.51-1.46,2.19-2.22l-1.44-3.06a20.53,20.53,0,0,1-2.73,3.16" transform="translate(-17.5 -38.57)"/><polyline class="cls-1" points="140.29 121.61 107.62 51.83 74.95 121.61 77.58 122.85 107.62 58.77 137.66 122.85 140.29 121.61"/></svg>